<svg width="170" height="161" viewBox="0 0 170 161" fill="none" xmlns="http://www.w3.org/2000/svg">
<path d="M169.999 80.4672C169.999 114.879 152.739 142.062 125.694 154.147C131.452 141.88 135.636 127.356 135.302 111.304C135.082 100.738 134.487 72.0768 114.491 54.8607C114.329 54.7208 114.165 54.5809 114 54.4474C108.803 47.4937 101.222 43.8068 92.5145 43.8068C89.4475 43.794 86.4004 44.2964 83.501 45.2929C103.868 31.9673 129.162 37.4759 139.344 39.6904C148.073 41.5982 156.972 45.8663 165.659 52.2099C168.589 61.3426 170.054 70.8792 169.999 80.4672Z" fill="url(#paint0_linear_1849_765)"/>
<path opacity="0.22" d="M169.999 80.4672C169.999 114.879 152.739 142.062 125.694 154.147C131.452 141.88 135.636 127.356 135.302 111.304C135.082 100.738 134.487 72.0768 114.491 54.8607C114.329 54.7208 114.165 54.5809 114 54.4474C108.803 47.4937 101.222 43.8068 92.5145 43.8068C89.4475 43.794 86.4004 44.2964 83.501 45.2929C103.868 31.9673 129.162 37.4759 139.344 39.6904C148.073 41.5982 156.972 45.8663 165.659 52.2099C168.589 61.3426 170.054 70.8792 169.999 80.4672Z" fill="url(#paint1_linear_1849_765)"/>
<path d="M165.658 52.2117C156.97 45.8681 148.072 41.5966 139.343 39.6923C129.161 37.4768 103.866 31.9681 83.5005 45.2928C71.8502 49.3378 63.6461 61.5628 63.6461 80.4676C63.6461 93.3026 67.34 103.137 73.2893 109.467L73.0979 109.341C50.9455 94.9218 46.4853 66.5955 44.8406 56.1579C42.4149 40.7719 44.3939 26.2467 48.2086 13.5947C60.5328 5.25323 75.6649 0.556641 92.5135 0.556641C128.02 0.556641 155.441 20.9411 165.658 52.2117Z" fill="url(#paint2_linear_1849_765)"/>
<path opacity="0.33" d="M165.658 52.2117C156.97 45.8681 148.072 41.5966 139.343 39.6923C129.161 37.4768 103.866 31.9681 83.5005 45.2928C71.8502 49.3378 63.6461 61.5628 63.6461 80.4676C63.6461 93.3026 67.34 103.137 73.2893 109.467L73.0979 109.341C50.9455 94.9218 46.4853 66.5955 44.8406 56.1579C42.4149 40.7719 44.3939 26.2467 48.2086 13.5947C60.5328 5.25323 75.6649 0.556641 92.5135 0.556641C128.02 0.556641 155.441 20.9411 165.658 52.2117Z" fill="url(#paint3_linear_1849_765)"/>
<path d="M105.322 114.541C86.9201 130.65 60.9515 128.519 50.5145 127.657C41.876 126.948 32.7874 124.06 23.6173 119.203C18.0862 107.931 15.0303 94.8225 15.0303 80.4661C15.0303 51.3337 27.751 27.4394 48.2101 13.5957C44.3954 26.2483 42.4184 40.7729 44.8421 56.159C46.4868 66.5965 50.947 94.9228 73.0994 109.342L73.2908 109.468C73.2982 109.476 73.3051 109.476 73.3124 109.483C75.7602 112.113 78.7334 114.203 82.0407 115.619C85.348 117.036 88.9162 117.746 92.5155 117.705C96.984 117.745 101.39 116.657 105.322 114.541Z" fill="url(#paint4_linear_1849_765)"/>
<path opacity="0.38" d="M105.322 114.541C86.9201 130.65 60.9515 128.519 50.5145 127.657C41.876 126.948 32.7874 124.06 23.6173 119.203C18.0862 107.931 15.0303 94.8225 15.0303 80.4661C15.0303 51.3337 27.751 27.4394 48.2101 13.5957C44.3954 26.2483 42.4184 40.7729 44.8421 56.159C46.4868 66.5965 50.947 94.9228 73.0994 109.342L73.2908 109.468C73.2982 109.476 73.3051 109.476 73.3124 109.483C75.7602 112.113 78.7334 114.203 82.0407 115.619C85.348 117.036 88.9162 117.746 92.5155 117.705C96.984 117.745 101.39 116.657 105.322 114.541Z" fill="url(#paint5_linear_1849_765)"/>
<path d="M125.695 154.149C115.816 158.558 104.633 160.955 92.5149 160.955C61.399 160.955 36.1406 144.805 23.6182 119.205C32.7868 124.062 41.8769 126.951 50.5154 127.659C60.9533 128.521 86.921 130.652 105.323 114.544C115.002 109.265 121.384 97.5173 121.384 80.469C121.384 69.4078 118.633 60.6383 114.002 54.4492C114.165 54.5828 114.329 54.7227 114.493 54.8626C134.49 72.0787 135.086 100.741 135.304 111.306C135.635 127.358 131.452 141.883 125.695 154.149Z" fill="url(#paint6_linear_1849_765)"/>
<path opacity="0.39" d="M125.695 154.149C115.816 158.558 104.633 160.955 92.5149 160.955C61.399 160.955 36.1406 144.805 23.6182 119.205C32.7868 124.062 41.8769 126.951 50.5154 127.659C60.9533 128.521 86.921 130.652 105.323 114.544C115.002 109.265 121.384 97.5173 121.384 80.469C121.384 69.4078 118.633 60.6383 114.002 54.4492C114.165 54.5828 114.329 54.7227 114.493 54.8626C134.49 72.0787 135.086 100.741 135.304 111.306C135.635 127.358 131.452 141.883 125.695 154.149Z" fill="url(#paint7_linear_1849_765)"/>
<path d="M0 12.7699C0 5.7522 4.79635 0.820312 11.5123 0.820312C18.2283 0.820312 22.8327 5.75171 22.8327 12.7699C22.8327 19.5979 18.4197 24.7195 11.3204 24.7195C4.60493 24.719 0 19.5979 0 12.7699Z" fill="url(#paint8_linear_1849_765)"/>
<defs>
<linearGradient id="paint0_linear_1849_765" x1="115.073" y1="80.0153" x2="164.249" y2="100.154" gradientUnits="userSpaceOnUse">
<stop stop-color="#2E6796"/>
<stop offset="0.219" stop-color="#3A6EA2"/>
<stop offset="0.689" stop-color="#507BB8"/>
<stop offset="0.994" stop-color="#5880C0"/>
</linearGradient>
<linearGradient id="paint1_linear_1849_765" x1="108.845" y1="82.0125" x2="160.225" y2="97.7178" gradientUnits="userSpaceOnUse">
<stop stop-color="white" stop-opacity="0"/>
<stop offset="0.143" stop-color="white" stop-opacity="0.216"/>
<stop offset="0.314" stop-color="white" stop-opacity="0.451"/>
<stop offset="0.48" stop-color="white" stop-opacity="0.647"/>
<stop offset="0.635" stop-color="white" stop-opacity="0.8"/>
<stop offset="0.777" stop-color="white" stop-opacity="0.91"/>
<stop offset="0.901" stop-color="white" stop-opacity="0.976"/>
<stop offset="0.994" stop-color="white"/>
</linearGradient>
<linearGradient id="paint2_linear_1849_765" x1="47.5556" y1="65.1407" x2="158.094" y2="15.2122" gradientUnits="userSpaceOnUse">
<stop stop-color="#667E93"/>
<stop offset="0.123" stop-color="#71919C"/>
<stop offset="0.344" stop-color="#82ADAA"/>
<stop offset="0.565" stop-color="#8FC2B4"/>
<stop offset="0.783" stop-color="#96CEBA"/>
<stop offset="0.994" stop-color="#99D3BC"/>
</linearGradient>
<linearGradient id="paint3_linear_1849_765" x1="97.2829" y1="75.9229" x2="118.17" y2="-42.703" gradientUnits="userSpaceOnUse">
<stop stop-color="white" stop-opacity="0"/>
<stop offset="0.036" stop-color="white" stop-opacity="0.118"/>
<stop offset="0.098" stop-color="white" stop-opacity="0.302"/>
<stop offset="0.166" stop-color="white" stop-opacity="0.467"/>
<stop offset="0.239" stop-color="white" stop-opacity="0.612"/>
<stop offset="0.316" stop-color="white" stop-opacity="0.733"/>
<stop offset="0.4" stop-color="white" stop-opacity="0.831"/>
<stop offset="0.494" stop-color="white" stop-opacity="0.906"/>
<stop offset="0.603" stop-color="white" stop-opacity="0.961"/>
<stop offset="0.739" stop-color="white" stop-opacity="0.992"/>
<stop offset="0.994" stop-color="white"/>
</linearGradient>
<linearGradient id="paint4_linear_1849_765" x1="16.9264" y1="40.4251" x2="83.3064" y2="96.8101" gradientUnits="userSpaceOnUse">
<stop stop-color="#64C29D"/>
<stop offset="0.534" stop-color="#458F96"/>
<stop offset="1" stop-color="#2E6792"/>
</linearGradient>
<linearGradient id="paint5_linear_1849_765" x1="15.6623" y1="54.8718" x2="99.157" y2="84.3313" gradientUnits="userSpaceOnUse">
<stop stop-color="white"/>
<stop offset="0.197" stop-color="white" stop-opacity="0.988"/>
<stop offset="0.331" stop-color="white" stop-opacity="0.953"/>
<stop offset="0.446" stop-color="white" stop-opacity="0.894"/>
<stop offset="0.551" stop-color="white" stop-opacity="0.808"/>
<stop offset="0.649" stop-color="white" stop-opacity="0.698"/>
<stop offset="0.742" stop-color="white" stop-opacity="0.565"/>
<stop offset="0.83" stop-color="white" stop-opacity="0.404"/>
<stop offset="0.915" stop-color="white" stop-opacity="0.22"/>
<stop offset="0.995" stop-color="white" stop-opacity="0.016"/>
<stop offset="1" stop-color="white" stop-opacity="0"/>
</linearGradient>
<linearGradient id="paint6_linear_1849_765" x1="34.4535" y1="141.678" x2="133.813" y2="93.7761" gradientUnits="userSpaceOnUse">
<stop stop-color="#4C78BB"/>
<stop offset="0.201" stop-color="#4463AE"/>
<stop offset="0.459" stop-color="#3E50A2"/>
<stop offset="0.723" stop-color="#3A449B"/>
<stop offset="1" stop-color="#394199"/>
</linearGradient>
<linearGradient id="paint7_linear_1849_765" x1="34.4535" y1="141.678" x2="133.813" y2="93.7761" gradientUnits="userSpaceOnUse">
<stop stop-color="white"/>
<stop offset="0.141" stop-color="white" stop-opacity="0.784"/>
<stop offset="0.315" stop-color="white" stop-opacity="0.549"/>
<stop offset="0.482" stop-color="white" stop-opacity="0.353"/>
<stop offset="0.639" stop-color="white" stop-opacity="0.2"/>
<stop offset="0.782" stop-color="white" stop-opacity="0.09"/>
<stop offset="0.907" stop-color="white" stop-opacity="0.024"/>
<stop offset="1" stop-color="white" stop-opacity="0"/>
</linearGradient>
<linearGradient id="paint8_linear_1849_765" x1="11.2794" y1="4.3813" x2="11.7296" y2="28.3037" gradientUnits="userSpaceOnUse">
<stop stop-color="#F6E06F"/>
<stop offset="1" stop-color="#EB4095"/>
</linearGradient>
</defs>
</svg>
