<svg width="1040" height="235" viewBox="0 0 1040 235" fill="none" xmlns="http://www.w3.org/2000/svg">
<path d="M239.399 182L193.599 42H227.199L266.999 166H250.199L291.799 42H321.799L361.799 166H345.599L386.399 42H417.399L371.599 182H336.799L301.399 73.2H310.599L274.199 182H239.399ZM491.279 182V161L489.279 156.4V118.8C489.279 112.133 487.212 106.933 483.079 103.2C479.079 99.4667 472.879 97.6 464.479 97.6C458.746 97.6 453.079 98.5333 447.479 100.4C442.012 102.133 437.346 104.533 433.479 107.6L422.279 85.8C428.146 81.6667 435.212 78.4667 443.479 76.2C451.746 73.9333 460.146 72.8 468.679 72.8C485.079 72.8 497.812 76.6667 506.879 84.4C515.946 92.1333 520.479 104.2 520.479 120.6V182H491.279ZM458.479 183.6C450.079 183.6 442.879 182.2 436.879 179.4C430.879 176.467 426.279 172.533 423.079 167.6C419.879 162.667 418.279 157.133 418.279 151C418.279 144.6 419.812 139 422.879 134.2C426.079 129.4 431.079 125.667 437.879 123C444.679 120.2 453.546 118.8 464.479 118.8H493.079V137H467.879C460.546 137 455.479 138.2 452.679 140.6C450.012 143 448.679 146 448.679 149.6C448.679 153.6 450.212 156.8 453.279 159.2C456.479 161.467 460.812 162.6 466.279 162.6C471.479 162.6 476.146 161.4 480.279 159C484.412 156.467 487.412 152.8 489.279 148L494.079 162.4C491.812 169.333 487.679 174.6 481.679 178.2C475.679 181.8 467.946 183.6 458.479 183.6ZM600.098 222.4C589.964 222.4 580.164 221.133 570.698 218.6C561.364 216.2 553.564 212.533 547.298 207.6L559.698 185.2C564.231 188.933 569.964 191.867 576.898 194C583.964 196.267 590.898 197.4 597.698 197.4C608.764 197.4 616.764 194.933 621.698 190C626.764 185.067 629.298 177.733 629.298 168V151.8L631.298 124.8L630.898 97.6V74.4H660.498V164C660.498 184 655.298 198.733 644.898 208.2C634.498 217.667 619.564 222.4 600.098 222.4ZM595.298 176.8C585.298 176.8 576.231 174.667 568.098 170.4C560.098 166 553.631 159.933 548.698 152.2C543.898 144.333 541.498 135.2 541.498 124.8C541.498 114.267 543.898 105.133 548.698 97.4C553.631 89.5333 560.098 83.4667 568.098 79.2C576.231 74.9333 585.298 72.8 595.298 72.8C604.364 72.8 612.364 74.6667 619.298 78.4C626.231 82 631.631 87.6667 635.498 95.4C639.364 103 641.298 112.8 641.298 124.8C641.298 136.667 639.364 146.467 635.498 154.2C631.631 161.8 626.231 167.467 619.298 171.2C612.364 174.933 604.364 176.8 595.298 176.8ZM601.498 151.2C606.964 151.2 611.831 150.133 616.098 148C620.364 145.733 623.698 142.6 626.098 138.6C628.498 134.6 629.698 130 629.698 124.8C629.698 119.467 628.498 114.867 626.098 111C623.698 107 620.364 103.933 616.098 101.8C611.831 99.5333 606.964 98.4 601.498 98.4C596.031 98.4 591.164 99.5333 586.898 101.8C582.631 103.933 579.231 107 576.698 111C574.298 114.867 573.098 119.467 573.098 124.8C573.098 130 574.298 134.6 576.698 138.6C579.231 142.6 582.631 145.733 586.898 148C591.164 150.133 596.031 151.2 601.498 151.2ZM733.537 183.6C720.87 183.6 711.003 180.4 703.937 174C696.87 167.467 693.337 157.8 693.337 145V50.6H724.537V144.6C724.537 149.133 725.737 152.667 728.137 155.2C730.537 157.6 733.803 158.8 737.937 158.8C742.87 158.8 747.07 157.467 750.537 154.8L758.937 176.8C755.737 179.067 751.87 180.8 747.337 182C742.937 183.067 738.337 183.6 733.537 183.6ZM676.737 100.8V76.8H751.337V100.8H676.737ZM842.451 182V161L840.451 156.4V118.8C840.451 112.133 838.384 106.933 834.251 103.2C830.251 99.4667 824.051 97.6 815.651 97.6C809.917 97.6 804.251 98.5333 798.651 100.4C793.184 102.133 788.517 104.533 784.651 107.6L773.451 85.8C779.317 81.6667 786.384 78.4667 794.651 76.2C802.917 73.9333 811.317 72.8 819.851 72.8C836.251 72.8 848.984 76.6667 858.051 84.4C867.117 92.1333 871.651 104.2 871.651 120.6V182H842.451ZM809.651 183.6C801.251 183.6 794.051 182.2 788.051 179.4C782.051 176.467 777.451 172.533 774.251 167.6C771.051 162.667 769.451 157.133 769.451 151C769.451 144.6 770.984 139 774.051 134.2C777.251 129.4 782.251 125.667 789.051 123C795.851 120.2 804.717 118.8 815.651 118.8H844.251V137H819.051C811.717 137 806.651 138.2 803.851 140.6C801.184 143 799.851 146 799.851 149.6C799.851 153.6 801.384 156.8 804.451 159.2C807.651 161.467 811.984 162.6 817.451 162.6C822.651 162.6 827.317 161.4 831.451 159C835.584 156.467 838.584 152.8 840.451 148L845.251 162.4C842.984 169.333 838.851 174.6 832.851 178.2C826.851 181.8 819.117 183.6 809.651 183.6ZM899.888 182V74.4H931.088V182H899.888ZM915.488 59.4C909.755 59.4 905.088 57.7333 901.488 54.4C897.888 51.0667 896.088 46.9333 896.088 42C896.088 37.0667 897.888 32.9333 901.488 29.6C905.088 26.2667 909.755 24.6 915.488 24.6C921.222 24.6 925.888 26.2 929.488 29.4C933.088 32.4667 934.888 36.4667 934.888 41.4C934.888 46.6 933.088 50.9333 929.488 54.4C926.022 57.7333 921.355 59.4 915.488 59.4ZM960.045 182V33.6H991.245V182H960.045Z" fill="black"/>
<path d="M127.231 46.6172L127.247 55.2547C127.247 55.2547 111.894 49.5102 102.001 59.9858C94.806 67.6046 94.2159 75.9769 97.5145 87.2575C130.109 87.2575 135.132 105.532 135.132 105.532L131.775 84.5079L142.009 72.0113C142.008 57.2113 129.79 47.4253 127.231 46.6172Z" fill="white"/>
<path d="M134.035 67.7712C134.035 69.9446 132.277 71.7065 130.108 71.7065C127.94 71.7065 126.182 69.9446 126.182 67.7712C126.182 65.5978 127.94 63.8359 130.108 63.8359C132.277 63.8359 134.035 65.5982 134.035 67.7712Z" fill="#231F20"/>
<path d="M135.132 105.533C135.132 105.533 130.108 80.5103 97.5466 87.2584C94.2483 75.9778 94.8381 67.6055 102.033 59.9867C111.927 49.5111 127.247 55.2556 127.247 55.2556L127.263 46.6181C121.878 44.2518 116.699 43.8027 110.958 43.8027C90.0327 43.8027 78.3936 59.438 73.4646 70.1109L14.5805 178.589L31.203 175.47L0.67627 234.386L21.9751 230.557L38.1643 184.198C84.2353 184.198 143.378 167.62 135.132 105.533Z" fill="black"/>
<path d="M154.982 84.5083L142.009 72.0078L131.774 84.5083H154.982Z" fill="#231F20"/>
<path d="M45.8447 170.862C45.8447 170.862 47.3749 170.528 50.0521 169.944C52.7256 169.346 56.5455 168.483 61.0733 167.247C63.3352 166.623 65.7756 165.911 68.3215 165.056C70.8754 164.224 73.5256 163.222 76.2233 162.093C78.9271 160.976 81.6371 159.632 84.3183 158.153C87.0059 156.681 89.6016 154.955 92.0686 153.077C92.6742 152.593 93.3101 152.146 93.8893 151.633L95.6426 150.116C96.7529 149.047 97.893 148.014 98.894 146.867C99.9531 145.772 100.874 144.575 101.814 143.42C102.263 142.827 102.677 142.212 103.106 141.617L103.74 140.721L104.31 139.793C104.686 139.177 105.06 138.565 105.43 137.96C105.761 137.332 106.088 136.71 106.413 136.095C106.575 135.787 106.736 135.482 106.895 135.177C107.035 134.863 107.174 134.551 107.312 134.24C107.589 133.62 107.862 133.007 108.131 132.403C108.614 131.17 109.054 129.958 109.468 128.784C109.815 127.586 110.182 126.439 110.478 125.322C110.736 124.195 110.983 123.115 111.218 122.088C111.392 121.047 111.556 120.06 111.711 119.133C111.888 118.209 111.949 117.328 112.041 116.519C112.126 115.709 112.205 114.966 112.275 114.294C112.409 111.593 112.486 110.049 112.486 110.049L114.89 110.132C114.89 110.132 114.773 111.72 114.568 114.501C114.478 115.193 114.379 115.959 114.271 116.793C114.157 117.626 114.071 118.531 113.866 119.483C113.683 120.438 113.488 121.454 113.282 122.525C113.014 123.583 112.731 124.695 112.436 125.855C112.102 127.004 111.695 128.185 111.305 129.415C110.847 130.622 110.361 131.867 109.829 133.13C109.535 133.75 109.237 134.379 108.935 135.015C108.785 135.333 108.633 135.652 108.48 135.974C108.307 136.285 108.133 136.599 107.958 136.914C107.607 137.542 107.252 138.177 106.893 138.819C106.496 139.436 106.095 140.06 105.69 140.689C105.487 141.002 105.282 141.316 105.077 141.633L104.401 142.543C103.943 143.148 103.5 143.771 103.022 144.372C102.025 145.541 101.046 146.749 99.9307 147.85C98.8724 149.004 97.6778 150.037 96.5139 151.104L94.6823 152.613C94.0775 153.124 93.4175 153.565 92.7877 154.044C90.2245 155.9 87.5433 157.589 84.7851 159.015C82.0325 160.449 79.2627 161.74 76.5109 162.8C73.7646 163.874 71.0758 164.816 68.491 165.59C65.9136 166.388 63.4495 167.043 61.1681 167.613C56.6021 168.742 52.7613 169.513 50.0733 170.047C47.3825 170.565 45.8447 170.862 45.8447 170.862Z" fill="white"/>
</svg>
